<svg width="544.3499755859375" height="309.93331146240234" xmlns="http://www.w3.org/2000/svg"><style>
                text { font:18px serif;user-select:none; }
                rect { fill:#eee;stroke:#afafaf;stroke-width:1px; }
                line { stroke:#555;stroke-width:2;stroke-linecap:round; }
                circle { stroke:#555;stroke-width:2;fill:#fff; }
                path { stroke:#555;fill:#555;stroke-width:2; }
            </style><g><line x1="306" y1="43.18333435058594" x2="97" y2="87.5"></line><line x1="306" y1="43.18333435058594" x2="290" y2="83.5"></line><line x1="306" y1="43.18333435058594" x2="472" y2="84.5"></line><line x1="97" y1="120.43333435058594" x2="41" y2="184.50001525878906"></line><line x1="97" y1="120.43333435058594" x2="147" y2="184.50001525878906"></line><line x1="290" y1="117.28333282470703" x2="251" y2="183.50001525878906"></line><line x1="290" y1="117.28333282470703" x2="329" y2="182.50001525878906"></line><line x1="329" y1="215.433349609375" x2="329" y2="267.5"></line></g><g><path visibility="hidden"></path><rect x="214" y="10" width="185.31666564941406" height="32.683332443237305"></rect><text x="222" y="32.46666717529297">Visualization technique</text><circle r="7" visibility="hidden"></circle></g><g><path visibility="visible" d="M 97 120.43333435058594 L 115.4573770746381 144.0833920994504 A 30 30 0 0 1 77.25651495628048 143.02082642758342 Z"></path><rect x="65" y="88" width="65.98333358764648" height="31.933332443237305"></rect><text x="73" y="110.46666717529297">Source</text><circle r="7" style="fill: rgb(136, 136, 136);" visibility="visible" cx="97" cy="87.5"></circle></g><g><path visibility="hidden"></path><rect x="10" y="185.00001525878906" width="62.983333587646484" height="31.933332443237305"></rect><text x="18" y="207.46666717529297">Model</text><circle r="7" visibility="hidden"></circle></g><g><path visibility="hidden"></path><rect x="99" y="185.00001525878906" width="97.94999694824219" height="31.933332443237305"></rect><text x="107" y="207.46666717529297">Metamodel</text><circle r="7" visibility="hidden"></circle></g><g><path visibility="visible" d="M 290 117.28333282470703 L 305.39711527805747 143.03073737573334 A 30 30 0 0 1 274.77518427143815 143.1329940610044 Z"></path><rect x="212" y="84" width="156.48333740234375" height="32.78333282470703"></rect><text x="220" y="106.46666717529297">Elements displayed</text><circle r="7" style="fill: rgb(136, 136, 136);" visibility="visible" cx="290" cy="83.5"></circle></g><g><path visibility="hidden"></path><rect x="232" y="184.00001525878906" width="39" height="31.933332443237305"></rect><text x="240" y="206.46666717529297">All</text><circle r="7" visibility="hidden"></circle></g><g><path visibility="hidden"></path><rect x="301" y="183.00001525878906" width="57" height="31.933332443237305"></rect><text x="309" y="205.46666717529297">Some</text><circle r="7" visibility="hidden"></circle></g><g><path visibility="hidden"></path><rect x="289" y="268" width="81.96666717529297" height="31.933332443237305"></rect><text x="297" y="290.46666717529297">Heuristic</text><circle r="7" style="fill: rgb(255, 255, 255);" visibility="visible" cx="329" cy="267.5"></circle></g><g><path visibility="hidden"></path><rect x="411" y="85" width="123.3499984741211" height="31.933332443237305"></rect><text x="419" y="107.46666717529297">Visual features</text><circle r="7" style="fill: rgb(255, 255, 255);" visibility="visible" cx="472" cy="84.5"></circle></g></svg>