<?xml version="1.0" encoding="UTF-8"?>
<svg version="1.1" xmlns:xlink="http://www.w3.org/1999/xlink" width="123px" height="69px" xmlns="http://www.w3.org/2000/svg">
  <g transform="matrix(1 0 0 1 -148 -139 )">
    <path d="M 34.75390625 58.191796875  C 37.8858506944445 55.586328125  39.8611111111111 52.2890625  40.6796875 48  L 23.9166666666667 48  C 22.4930555555556 48.3  21.4698350694444 47.67109375  20.8470052083333 46.41328125  C 20.2241753472222 45.15546875  20.33984375 43.9515625  21.1940104166667 42.8015625  L 31.23046875 29.27109375  C 28.9171006944444 28.15703125  26.4791666666667 27.6  23.9166666666667 27.6  C 19.21875 27.6  15.1970486111111 29.2890625  11.8515625 32.6671875  C 8.50607638888889 36.0453125  6.83333333333333 40.10625  6.83333333333333 44.85  C 6.83333333333333 49.59375  8.50607638888889 53.6546875  11.8515625 57.0328125  C 15.1970486111111 60.4109375  19.21875 62.1  23.9166666666667 62.1  C 28.0095486111111 62.1  31.6219618055556 60.797265625  34.75390625 58.191796875  Z M 36.67578125 33.421875  L 30.75 41.4  L 40.6796875 41.4  C 40.0390625 38.3453125  38.7044270833333 35.6859375  36.67578125 33.421875  Z M 47.56640625 41.4  L 56.375 41.4  L 71.75 21  L 46.125 21  L 40.83984375 27.815625  C 44.5768229166667 31.5171875  46.8190104166667 36.0453125  47.56640625 41.4  Z M 111.1484375 57.0328125  C 114.493923611111 53.6546875  116.166666666667 49.59375  116.166666666667 44.85  C 116.166666666667 40.10625  114.493923611111 36.0453125  111.1484375 32.6671875  C 107.802951388889 29.2890625  103.78125 27.6  99.0833333333333 27.6  C 96.9479166666667 27.6  94.7947048611111 28.03125  92.6236979166667 28.89375  L 101.912760416667 42.909375  C 102.446614583333 43.7359375  102.624565972222 44.61640625  102.446614583333 45.55078125  C 102.268663194444 46.48515625  101.788194444444 47.20390625  101.005208333333 47.70703125  C 100.471354166667 48.10234375  99.8307291666667 48.3  99.0833333333333 48.3  C 97.8376736111111 48.3  96.89453125 47.77890625  96.25390625 46.73671875  L 86.96484375 32.72109375  C 83.6549479166667 36.13515625  82 40.178125  82 44.85  C 82 49.59375  83.6727430555556 53.6546875  87.0182291666667 57.0328125  C 90.3637152777778 60.4109375  94.3854166666667 62.1  99.0833333333333 62.1  C 103.78125 62.1  107.802951388889 60.4109375  111.1484375 57.0328125  Z M 115.979817708333 27.788671875  C 120.659939236111 32.514453125  123 38.2015625  123 44.85  C 123 51.4984375  120.659939236111 57.185546875  115.979817708333 61.911328125  C 111.299696180556 66.637109375  105.667534722222 69  99.0833333333333 69  C 92.4991319444445 69  86.8669704861111 66.637109375  82.1868489583333 61.911328125  C 77.5067274305556 57.185546875  75.1666666666667 51.4984375  75.1666666666667 44.85  C 75.1666666666667 41.3640625  75.8695746527778 38.066796875  77.275390625 34.958203125  C 78.6812065972222 31.849609375  80.6297743055556 29.16328125  83.12109375 26.89921875  L 79.6510416666667 21.61640625  L 60.8059895833333 46.8984375  C 60.1653645833333 47.8328125  59.2578125 48.3  58.0833333333333 48  L 47.56640625 48  C 46.7478298611111 54.19375  44.0963541666667 59.1171875  39.6119791666667 63.0703125  C 35.1276041666667 67.0234375  29.8958333333333 69  23.9166666666667 69  C 17.3324652777778 69  11.7003038194444 66.637109375  7.02018229166667 61.911328125  C 2.34006076388889 57.185546875  0 51.4984375  0 44.85  C 0 38.2015625  2.34006076388889 32.514453125  7.02018229166667 27.788671875  C 11.7003038194444 23.062890625  17.3324652777778 20.7  23.9166666666667 20.7  C 27.9739583333333 20.7  31.7999131944444 21.68828125  35.39453125 23.66484375  L 42.7083333333333 14  L 30.75 14  C 29.8246527777778 13.8  29.0238715277778 13.45859375  28.34765625 12.77578125  C 27.6714409722222 12.09296875  27.3333333333333 11.284375  27.3333333333333 10.35  C 27.3333333333333 9.41562499999999  27.6714409722222 8.60703124999999  28.34765625 7.92421875  C 29.0238715277778 7.24140624999999  29.8246527777778 6.9  30.75 7  L 51.25 7  L 51.25 14  L 74.47265625 14  L 69.9348958333333 7  L 58.0833333333333 7  C 57.1579861111111 6.9  56.3572048611111 6.55859374999999  55.6809895833333 5.87578125  C 55.0047743055556 5.19296875  54.6666666666667 4.384375  54.6666666666667 3.45  C 54.6666666666667 2.51562499999999  55.0047743055556 1.70703124999999  55.6809895833333 1.02421875  C 56.3572048611111 0.341406249999996  57.1579861111111 0  58.0833333333333 0  L 71.75 0  C 72.9244791666667 0  73.8676215277778 0.503124999999994  74.5794270833333 1.509375  L 88.8333333333333 23.071875  C 92.0720486111111 21.490625  95.4887152777778 20.7  99.0833333333333 20.7  C 105.667534722222 20.7  111.299696180556 23.062890625  115.979817708333 27.788671875  Z " fill-rule="nonzero" fill="#ffffff" stroke="none" transform="matrix(1 0 0 1 148 139 )"/>
  </g>
</svg>